<?xml version="1.0" ?><svg data-name="Layer 1" id="Layer_1" viewBox="0 0 64 64" xmlns="http://www.w3.org/2000/svg"><path d="M16.74,55h-.2c-2.6-.22-4.72-2.64-6.28-4.41L9.78,50l-.4-.42c-.77-.8-1.72-1.79-1.26-3.33a4.42,4.42,0,0,1,2-2.18,3.92,3.92,0,0,1,2.32-.68h0c.92.25,3.77,2.82,4.33,3.34,2.33,2.12,3.59,3.56,3.75,4.28a.94.94,0,0,1-.29.94,5.62,5.62,0,0,0-.78,1C18.87,53.84,18.09,55,16.74,55ZM12.06,44.92c-.53.09-2.21.95-2.46,1.8-.19.62.09,1,.89,1.82l.44.46.49.56c1.38,1.58,3.27,3.73,5.25,3.9.53,0,.92-.48,1.49-1.34a9.74,9.74,0,0,1,.72-1A39.88,39.88,0,0,0,12.06,44.92Z" fill="#1b1c20"/><path d="M13.76,45.17a.75.75,0,0,1-.55-.24.77.77,0,0,1,0-1.09l1-.94a25.42,25.42,0,0,0,3.28-3.35,12.1,12.1,0,0,1,2.94-6.1,10.19,10.19,0,0,1,6.27-2.71l.72-.08a8.79,8.79,0,0,0,1.94-.36,8.46,8.46,0,0,0,1.88-1.13c.25-.19.52-.37.78-.55a2.92,2.92,0,0,1,3-.12A2.67,2.67,0,0,1,36.53,31a4,4,0,0,1-1.05,2.67,6.88,6.88,0,0,1-2.74,1.57,9.42,9.42,0,0,0-1.6.71c-1.86,1.14-2.06,1.41-3.68,3.49a.77.77,0,1,1-1.21-1,11.66,11.66,0,0,1,4.08-3.85,10.25,10.25,0,0,1,1.86-.84,5.65,5.65,0,0,0,2.17-1.18A2.5,2.5,0,0,0,35,30.92a1.17,1.17,0,0,0-.64-1.07,1.39,1.39,0,0,0-1.44,0c-.24.16-.47.34-.73.52a9.79,9.79,0,0,1-2.24,1.32,9.15,9.15,0,0,1-2.32.45l-.68.07c-4.7.62-6.77,2.62-7.91,7.66-.16.72-1.24,1.81-3.74,4.11l-1,.93A.78.78,0,0,1,13.76,45.17Z" fill="#1b1c20"/><path d="M19.78,50.39a.79.79,0,0,1-.6-.28A.78.78,0,0,1,19.29,49a39.6,39.6,0,0,1,8.18-4.57l1.3-.61c1.2-.56,2.44-1,3.64-1.49,2.16-.83,4.2-1.61,5.21-2.64a6.2,6.2,0,0,0,1-2.5c.36-1.39.74-2.83,1.81-3.63a.78.78,0,0,1,1.08.16.77.77,0,0,1-.16,1.08,5.49,5.49,0,0,0-1.24,2.78,7.16,7.16,0,0,1-1.4,3.19c-1.25,1.27-3.44,2.11-5.76,3-1.18.45-2.39.91-3.53,1.45l-1.32.61a38.18,38.18,0,0,0-7.84,4.37A.83.83,0,0,1,19.78,50.39Z" fill="#1b1c20"/><path d="M22.24,33.75a.76.76,0,0,1-.72-.51,9.08,9.08,0,0,1,.91-7.47,15.68,15.68,0,0,1,5.33-5.26c.76-.49,1.56-.94,2.33-1.38a24.5,24.5,0,0,0,4.11-2.69c1.59-1.39,3.09-3.67,2.5-5.94a.77.77,0,0,1,1-.91c11.34,4.42,11.51,4.63,11.73,4.9.87,1.11.92,3.53.91,4.24,0,3.38-2.28,6.38-6.32,8.47-.72.37-1.52.71-2.37,1.08-2,.87-4.14,1.77-5.33,3.15a.77.77,0,0,1-1.09.09.77.77,0,0,1-.08-1.09c1.42-1.66,3.79-2.67,5.89-3.57.82-.35,1.6-.68,2.28-1,2-1,5.44-3.37,5.48-7.11a7.74,7.74,0,0,0-.52-3.19c-.49-.27-2.7-1.21-9.94-4a8.51,8.51,0,0,1-3.16,6.1,25.63,25.63,0,0,1-4.36,2.87c-.75.43-1.53.87-2.26,1.34a14.17,14.17,0,0,0-4.82,4.73,7.66,7.66,0,0,0-.8,6.19.77.77,0,0,1-.47,1A.78.78,0,0,1,22.24,33.75Z" fill="#1b1c20"/><path d="M35.65,33.74a.77.77,0,0,1-.13-1.53c5.23-1,10.86-3.83,13.39-6.82a16.33,16.33,0,0,0,2.47-3.48A7.43,7.43,0,0,0,52,18a10,10,0,0,1-1-.16,8,8,0,0,0-1.41-.16.77.77,0,0,1-.75-.78.78.78,0,0,1,.78-.76,8.84,8.84,0,0,1,1.66.19,7.12,7.12,0,0,0,1.4.16.78.78,0,0,1,.75.63,9,9,0,0,1-.67,5.43,17.14,17.14,0,0,1-2.68,3.84c-2.78,3.28-8.66,6.3-14.29,7.34Z" fill="#1b1c20"/><path d="M32.66,36.11a18.53,18.53,0,0,1-2-.1.77.77,0,0,1,.17-1.53,30.93,30.93,0,0,0,10.09-1.07c3.52-.9,6.63-2.16,8.11-3.31a17.45,17.45,0,0,0,5.46-7.84L53.59,22c-.37-.12-.75-.25-1.06-.37a.77.77,0,0,1-.44-1,.78.78,0,0,1,1-.44c.27.11.64.23,1,.35,1.29.43,1.75.6,2,1,.12.24.17.5-.22,1.61a20.11,20.11,0,0,1-1,2.36A18.33,18.33,0,0,1,50,31.32C46.92,33.67,38.75,36.11,32.66,36.11Zm22.18-13.7Z" fill="#1b1c20"/><path d="M25.24,31.93h-.17a.78.78,0,0,1-.59-.92c.05-.23,1.27-5.72,4.69-7.88l1.66-1a36.57,36.57,0,0,0,6.61-4.78A11.44,11.44,0,0,0,39,14a.8.8,0,0,1,.43-.47.75.75,0,0,1,.64,0l6.22,3a.73.73,0,0,1,.37.4,5.54,5.54,0,0,1-1.9,6.53,24.67,24.67,0,0,1-3.95,2.23c-2.36,1.15-4.58,2.24-5.14,3.91a.77.77,0,0,1-1,.49.78.78,0,0,1-.49-1c.76-2.28,3.38-3.56,5.92-4.8a23.67,23.67,0,0,0,3.71-2.09,3.88,3.88,0,0,0,1.66-3.07,4.53,4.53,0,0,0-.17-1.37l-5.14-2.46a9.64,9.64,0,0,1-1.66,3.15,38,38,0,0,1-6.86,5l-1.65,1c-2.87,1.82-4,6.85-4,6.91A.77.77,0,0,1,25.24,31.93Z" fill="#1b1c20"/><path d="M34,26.44a1.86,1.86,0,0,1-1.75-.87,1.5,1.5,0,0,1-.07-1.18,4.09,4.09,0,0,1,2.15-2.09c1.73-.85,3.37-.72,3.9.3h0a1.48,1.48,0,0,1,.07,1.19,4.09,4.09,0,0,1-2.15,2.09A5.06,5.06,0,0,1,34,26.44Zm-.35-1.58a2.82,2.82,0,0,0,1.82-.36,2.76,2.76,0,0,0,1.36-1.18,3.56,3.56,0,0,0-3.18,1.54Zm3.25-1.51Z" fill="#1b1c20"/></svg>